# xmcd
#
# Track frame offsets:
# 150
# 14617
# 27296
# 44858
# 62439
# 75217
# 92974
# 116320
# 133689
# 154091
# 173130
# 189471
# 208526
# 224330
# 238370
#
# Disc length: 3439 seconds
#
#
# Revision: 0
# Processed by: cddbd v1.5.1PL0 Copyright (c) Steve Scherf et al.
# Submitted via: FreeRIP 2.931 
#
DISCID=ce0d6d0f
DTITLE=Gil de Lucena - Pôr-do-Sol
DYEAR=2005
DGENRE=Pop
TTITLE0=Tocando em frente
TTITLE1=Entre a serpente e a estrela
TTITLE2=Sapato velho
TTITLE3=Canção da américa
TTITLE4=Epetáfio
TTITLE5=La belle de jour
TTITLE6=so hoje - um amor maior
TTITLE7=Malandragem
TTITLE8=Brincos
TTITLE9=Como nossos pais
TTITLE10=Mais uma vez
TTITLE11=Dois rios
TTITLE12=outra vez
TTITLE13=Flor de lis
TTITLE14=Planeta sonho
EXTD=Violões e vocais: Gil de Lucena\nTécnico de Gravação: Ari Protozoário\nFotos: Natanael Gonçalves\nArte: Aurélio\nContato 55-11-6146-7721
EXTT0=
EXTT1=
EXTT2=
EXTT3=
EXTT4=
EXTT5=
EXTT6=
EXTT7=
EXTT8=
EXTT9=
EXTT10=
EXTT11=
EXTT12=
EXTT13=
EXTT14=
PLAYORDER=
